HIERARCHY
ROOT Hips
{
	OFFSET 0.000000 0.000000 0.000000
	CHANNELS 6 Xposition Yposition Zposition Zrotation Yrotation Xrotation 
	JOINT LHipJoint
	{
		OFFSET 0.000000 0.000000 0.000000
		CHANNELS 3 Zrotation Yrotation Xrotation
		JOINT LeftUpLeg
		{
			OFFSET 1.363060 -1.794630 0.839290
			CHANNELS 3 Zrotation Yrotation Xrotation
			JOINT LeftLeg
			{
				OFFSET 2.448110 -6.726130 0.000000
				CHANNELS 3 Zrotation Yrotation Xrotation
				JOINT LeftFoot
				{
					OFFSET 2.562200 -7.039590 0.000000
					CHANNELS 3 Zrotation Yrotation Xrotation
					JOINT LeftToeBase
					{
						OFFSET 0.157640 -0.433110 2.322550
						CHANNELS 3 Zrotation Yrotation Xrotation
						End Site
						{
							OFFSET 0.000000 0.000000 0.000000
						}
					}
				}
			}
		}
	}
	JOINT RHipJoint
	{
		OFFSET 0.000000 0.000000 0.000000
		CHANNELS 3 Zrotation Yrotation Xrotation
		JOINT RightUpLeg
		{
			OFFSET -1.305520 -1.794630 0.839290
			CHANNELS 3 Zrotation Yrotation Xrotation
			JOINT RightLeg
			{
				OFFSET -2.542530 -6.985550 0.000000
				CHANNELS 3 Zrotation Yrotation Xrotation
				JOINT RightFoot
				{
					OFFSET -2.568260 -7.056230 0.000000
					CHANNELS 3 Zrotation Yrotation Xrotation
					JOINT RightToeBase
					{
						OFFSET -0.164730 -0.452590 2.363150
						CHANNELS 3 Zrotation Yrotation Xrotation
						End Site
						{
							OFFSET 0.000000 0.000000 0.000000
						}
					}
				}
			}
		}
	}
	JOINT LowerBack
	{
		OFFSET 0.000000 0.000000 0.000000
		CHANNELS 3 Zrotation Yrotation Xrotation
		JOINT Spine
		{
			OFFSET 0.028270 2.035590 -0.193380
			CHANNELS 3 Zrotation Yrotation Xrotation
			JOINT Spine1
			{
				OFFSET 0.056720 2.048850 -0.042750
				CHANNELS 3 Zrotation Yrotation Xrotation
				JOINT Neck
				{
					OFFSET 0.000000 0.000000 0.000000
					CHANNELS 3 Zrotation Yrotation Xrotation
					JOINT Neck1
					{
						OFFSET -0.054170 1.746240 0.172020
						CHANNELS 3 Zrotation Yrotation Xrotation
						JOINT Head
						{
							OFFSET 0.104070 1.761360 -0.123970
							CHANNELS 3 Zrotation Yrotation Xrotation
							End Site
							{
								OFFSET 0.000000 0.000000 0.000000
							}
						}
					}
				}
				JOINT LeftShoulder
				{
					OFFSET 0.000000 0.000000 0.000000
					CHANNELS 3 Zrotation Yrotation Xrotation
					JOINT LeftArm
					{
						OFFSET 3.362410 1.200890 -0.311210
						CHANNELS 3 Zrotation Yrotation Xrotation
						JOINT LeftForeArm
						{
							OFFSET 4.983000 -0.000000 -0.000000
							CHANNELS 3 Zrotation Yrotation Xrotation
							JOINT LeftHand
							{
								OFFSET 3.483560 -0.000000 -0.000000
								CHANNELS 3 Zrotation Yrotation Xrotation
								JOINT LeftFingerBase
								{
									OFFSET 0.000000 0.000000 0.000000
									CHANNELS 3 Zrotation Yrotation Xrotation
									JOINT LeftHandIndex1
									{
										OFFSET 0.715260 -0.000000 -0.000000
										CHANNELS 3 Zrotation Yrotation Xrotation
										End Site
										{
											OFFSET 0.000000 0.000000 0.000000
										}
									}
								}
								JOINT LThumb
								{
									OFFSET 0.000000 0.000000 0.000000
									CHANNELS 3 Zrotation Yrotation Xrotation
									End Site
									{
										OFFSET 0.000000 0.000000 0.000000
									}
								}
							}
						}
					}
				}
				JOINT RightShoulder
				{
					OFFSET 0.000000 0.000000 0.000000
					CHANNELS 3 Zrotation Yrotation Xrotation
					JOINT RightArm
					{
						OFFSET -3.136600 1.374050 -0.404650
						CHANNELS 3 Zrotation Yrotation Xrotation
						JOINT RightForeArm
						{
							OFFSET -5.241900 -0.000000 -0.000000
							CHANNELS 3 Zrotation Yrotation Xrotation
							JOINT RightHand
							{
								OFFSET -3.444170 -0.000000 -0.000000
								CHANNELS 3 Zrotation Yrotation Xrotation
								JOINT RightFingerBase
								{
									OFFSET 0.000000 0.000000 0.000000
									CHANNELS 3 Zrotation Yrotation Xrotation
									JOINT RightHandIndex1
									{
										OFFSET -0.622530 -0.000000 -0.000000
										CHANNELS 3 Zrotation Yrotation Xrotation
										End Site
										{
											OFFSET 0.000000 0.000000 0.000000
										}
									}
								}
								JOINT RThumb
								{
									OFFSET 0.000000 0.000000 0.000000
									CHANNELS 3 Zrotation Yrotation Xrotation
									End Site
									{
										OFFSET 0.000000 0.000000 0.000000
									}
								}
							}
						}
					}
				}
			}
		}
	}
}
MOTION
Frames: 6
Frame Time: 0.008333
10.146623 18.113965 -0.263854 -0.951746 -9.783774 -2.924342 -1.734764 5.249876 4.359840 -15.317628 -2.761443 -1.347860 -1.138639 4.200998 15.397940 -3.354851 15.779450 -10.215083 0.008500 -0.596600 -1.639400 -0.917695 -5.201876 2.282498 19.296599 4.456997 3.613273 0.881341 -2.401909 11.459620 1.875361 -11.700455 -8.206660 -0.005200 0.463700 -1.274200 2.493934 -1.345846 0.309354 1.875188 -1.683546 -0.309766 0.212446 -0.870677 1.380842 -8.877501 -7.304236 -8.582897 6.720096 -9.433848 4.977522 1.740000 -4.625400 3.966100 -3.823858 -2.224814 0.453205 -89.561185 3.711956 14.332161 17.435338 -28.858570 -4.493799 -0.351706 1.300844 -25.766045 20.150058 22.147739 7.318900 -7.125000 0.000000 0.000000 -8.827900 51.737400 -1.474200 6.881544 2.277115 -0.249625 73.144964 -15.563377 36.762626 -34.498484 45.277210 -13.591870 -0.001379 -0.720052 -21.693276 -24.156026 12.925892 -5.984200 7.125000 0.000000 0.000000 2.397800 -15.073000 1.693300 
10.152809 18.112951 -0.263651 -1.040102 -9.764418 -2.900784 -1.735018 5.254806 4.362882 -15.257969 -2.788504 -1.343295 -1.148054 4.176573 15.311403 -3.416612 15.976922 -10.077344 0.009600 -0.632800 -1.739000 -0.914578 -5.193939 2.275757 19.376980 4.539391 3.562965 0.874629 -2.434216 11.546770 1.877805 -11.728256 -8.261332 -0.002500 0.324500 -0.891500 2.640291 -1.370296 0.304361 1.852346 -1.712799 -0.290807 0.108187 -0.883640 1.363358 -8.674787 -7.518321 -8.980134 6.640926 -9.706289 5.841300 1.468600 -4.717800 3.824900 -3.826635 -2.203231 0.459872 -89.505111 3.858672 14.319151 17.328091 -28.727699 -4.449383 -0.372956 1.301887 -25.836079 19.838397 22.694857 7.378700 -7.125000 0.000000 0.000000 -9.309600 52.236700 -1.670300 6.901173 2.301981 -0.238085 72.990228 -16.014361 37.008425 -35.817113 46.205423 -14.451739 0.000506 -0.723986 -21.821878 -23.957822 13.192817 -6.042400 7.125000 0.000000 0.000000 2.550700 -14.804200 1.816100 
10.157169 18.117819 -0.260609 -0.578989 -9.801253 -2.858870 -1.765524 5.229792 4.346245 -15.746019 -3.048243 -1.149568 -1.199978 4.057612 15.020079 -3.385653 15.971805 -10.400797 0.000400 -0.133900 -0.367800 -0.898707 -5.180574 2.284800 18.860683 4.715660 3.169532 0.831766 -2.615306 11.980897 1.865153 -11.666004 -8.365954 -0.000100 0.048100 -0.132100 2.146361 -1.405438 0.169994 1.739546 -1.774784 -0.303865 0.271089 -0.929827 1.400567 -8.495183 -7.629674 -9.471754 6.285422 -9.802494 6.428577 1.325600 -4.753500 4.020600 -3.832865 -2.189551 0.461099 -89.633375 3.993888 13.813974 17.195234 -28.576412 -4.406498 -0.322482 1.312523 -25.535349 20.739198 21.977197 7.483400 -7.125000 0.000000 0.000000 -8.212200 51.659500 -1.354400 6.909621 2.310336 -0.231211 72.786406 -16.330260 37.340069 -36.981464 46.992395 -15.218944 -0.003986 -0.724067 -21.883101 -23.532901 13.680517 -6.120100 7.125000 0.000000 0.000000 2.873100 -14.333400 2.075100 
10.161023 18.116602 -0.257567 -0.162425 -9.822895 -2.842963 -1.787427 5.209943 4.332082 -16.188498 -3.117869 -1.023881 -1.227050 3.985912 14.871017 -3.302208 15.760973 -10.684028 0.001700 0.267300 0.734500 -0.891386 -5.177444 2.295878 18.376018 4.698964 2.894385 0.807419 -2.710603 12.195982 1.860726 -11.618539 -8.349417 -0.000000 0.028500 -0.078300 1.639623 -1.468275 0.032134 1.719752 -1.870112 -0.302608 0.562607 -0.993352 1.478435 -8.563382 -7.723881 -9.738047 5.957582 -9.866415 6.827573 1.241800 -4.787900 4.149700 -3.833546 -2.182318 0.457877 -89.983664 4.032167 12.926305 17.014527 -28.364478 -4.341321 -0.258786 1.314938 -24.915797 21.461771 20.732542 7.314800 -7.125000 0.000000 0.000000 -7.159800 50.506200 -0.975900 6.920963 2.311645 -0.221080 72.347749 -16.566539 37.883370 -38.289260 47.834893 -16.099397 -0.004384 -0.724360 -22.103685 -23.334288 13.997541 -6.189800 7.125000 0.000000 0.000000 3.029300 -14.018700 2.208400 
10.162645 18.115081 -0.255640 -0.246667 -9.812056 -2.935689 -1.776193 5.233240 4.354155 -16.102803 -2.956605 -0.912859 -1.229798 3.951800 14.790927 -3.281717 15.666807 -10.606802 0.000800 0.179400 0.492800 -0.899011 -5.182523 2.289820 18.463467 4.626252 2.933107 0.787294 -2.766214 12.369034 1.826301 -11.494224 -8.530719 -0.001000 0.202500 -0.556300 1.668291 -1.488284 0.104392 1.830051 -1.888528 -0.270066 0.681689 -1.004503 1.488128 -9.164873 -7.899905 -9.510453 6.245011 -10.073913 6.782049 1.393200 -4.895800 4.150100 -3.828206 -2.193697 0.452217 -90.316906 4.204179 12.362469 16.962862 -28.303244 -4.319243 -0.249794 1.312650 -24.289002 21.179428 20.471812 7.120200 -7.125000 0.000000 0.000000 -7.353400 50.193000 -0.945700 6.944713 2.318021 -0.221116 71.951445 -16.981527 38.233095 -39.964432 48.850594 -17.252139 -0.004183 -0.727796 -22.271049 -23.281627 14.307052 -6.300100 7.125000 0.000000 0.000000 3.086500 -13.690300 2.271700 
10.161834 18.118021 -0.256350 -0.177804 -9.799846 -2.901958 -1.784016 5.219356 4.341675 -16.167441 -2.892466 -1.017434 -1.222248 3.966615 14.826426 -3.322297 15.782488 -10.431029 0.000100 -0.046800 -0.128600 -0.894789 -5.180306 2.297034 18.387989 4.691227 2.881114 0.788444 -2.772592 12.377685 1.813694 -11.453237 -8.631277 -0.001000 0.201300 -0.553200 1.546120 -1.477446 0.097584 1.864544 -1.876375 -0.343083 0.783449 -1.001091 1.452696 -9.847777 -7.899571 -8.832513 7.037505 -10.129148 6.203027 1.708100 -4.928200 3.972600 -3.814530 -2.230056 0.444874 -90.415721 4.365773 12.309009 16.774411 -28.079037 -4.241899 -0.286134 1.318961 -24.014846 20.469439 21.384334 7.176800 -7.125000 0.000000 0.000000 -8.286600 51.004800 -1.233200 6.975658 2.315860 -0.236315 71.636776 -17.526167 38.660185 -41.731515 49.857609 -18.488741 -0.009587 -0.733888 -22.407532 -23.411945 14.872339 -6.569500 7.125000 0.000000 0.000000 3.041900 -13.062900 2.278900 
